<svg viewBox="0 0 64 64" xmlns="http://www.w3.org/2000/svg" shape-rendering="crispEdges">
  <rect width="64" height="64" fill="#000"/>
  <!-- Pixel heart -->
  <rect x="12" y="20" width="4" height="4" fill="#fff"/>
  <rect x="16" y="16" width="4" height="4" fill="#fff"/>
  <rect x="20" y="14" width="4" height="4" fill="#fff"/>
  <rect x="24" y="14" width="4" height="4" fill="#fff"/>
  <rect x="28" y="16" width="4" height="4" fill="#fff"/>
  <rect x="28" y="16" width="4" height="4" fill="#fff"/>
  <rect x="32" y="16" width="4" height="4" fill="#fff"/>
  <rect x="36" y="14" width="4" height="4" fill="#fff"/>
  <rect x="40" y="14" width="4" height="4" fill="#fff"/>
  <rect x="44" y="16" width="4" height="4" fill="#fff"/>
  <rect x="48" y="20" width="4" height="4" fill="#fff"/>
  <rect x="12" y="24" width="4" height="4" fill="#fff"/>
  <rect x="16" y="20" width="4" height="4" fill="#fff"/>
  <rect x="20" y="18" width="4" height="4" fill="#fff"/>
  <rect x="24" y="18" width="4" height="4" fill="#fff"/>
  <rect x="28" y="20" width="4" height="4" fill="#fff"/>
  <rect x="32" y="20" width="4" height="4" fill="#fff"/>
  <rect x="36" y="18" width="4" height="4" fill="#fff"/>
  <rect x="40" y="18" width="4" height="4" fill="#fff"/>
  <rect x="44" y="20" width="4" height="4" fill="#fff"/>
  <rect x="48" y="24" width="4" height="4" fill="#fff"/>
  <rect x="12" y="28" width="4" height="4" fill="#fff"/>
  <rect x="48" y="28" width="4" height="4" fill="#fff"/>
  <rect x="16" y="32" width="4" height="4" fill="#fff"/>
  <rect x="44" y="32" width="4" height="4" fill="#fff"/>
  <rect x="20" y="36" width="4" height="4" fill="#fff"/>
  <rect x="40" y="36" width="4" height="4" fill="#fff"/>
  <rect x="24" y="40" width="4" height="4" fill="#fff"/>
  <rect x="36" y="40" width="4" height="4" fill="#fff"/>
  <rect x="28" y="44" width="4" height="4" fill="#fff"/>
  <rect x="32" y="44" width="4" height="4" fill="#fff"/>
  <!-- Fill inside -->
  <rect x="16" y="24" width="32" height="4" fill="#fff"/>
  <rect x="16" y="28" width="32" height="4" fill="#fff"/>
  <rect x="20" y="32" width="24" height="4" fill="#fff"/>
  <rect x="24" y="36" width="16" height="4" fill="#fff"/>
  <rect x="28" y="40" width="8" height="4" fill="#fff"/>
</svg>
